<?xml version="1.0" encoding="UTF-8" standalone="no"?>
<svg width="12px" height="13px" viewBox="0 0 12 13" version="1.1" xmlns="http://www.w3.org/2000/svg" xmlns:xlink="http://www.w3.org/1999/xlink" xmlns:sketch="http://www.bohemiancoding.com/sketch/ns">
    <!-- Generator: Sketch 3.3.2 (12043) - http://www.bohemiancoding.com/sketch -->
    <title>Calendar Copy</title>
    <desc>Created with Sketch.</desc>
    <defs></defs>
    <g id="Content-Dashboard-(devices)" stroke="none" stroke-width="1" fill="none" fill-rule="evenodd" sketch:type="MSPage">
        <g id="Calendar-Copy" sketch:type="MSLayerGroup" fill="#1A1918">
            <path d="M4,4.8 L5.6,4.8 L5.6,6.4 L4,6.4 L4,4.8 Z" id="Fill-1" sketch:type="MSShapeGroup"></path>
            <path d="M6.4,4.8 L8,4.8 L8,6.4 L6.4,6.4 L6.4,4.8 Z" id="Fill-2" sketch:type="MSShapeGroup"></path>
            <path d="M8.8,4.8 L10.4,4.8 L10.4,6.4 L8.8,6.4 L8.8,4.8 Z" id="Fill-3" sketch:type="MSShapeGroup"></path>
            <path d="M1.6,7.2 L3.2,7.2 L3.2,8.8 L1.6,8.8 L1.6,7.2 Z" id="Fill-4" sketch:type="MSShapeGroup"></path>
            <path d="M4,7.2 L5.6,7.2 L5.6,8.8 L4,8.8 L4,7.2 Z" id="Fill-5" sketch:type="MSShapeGroup"></path>
            <path d="M6.4,7.2 L8,7.2 L8,8.8 L6.4,8.8 L6.4,7.2 Z" id="Fill-6" sketch:type="MSShapeGroup"></path>
            <path d="M8.8,7.2 L10.4,7.2 L10.4,8.8 L8.8,8.8 L8.8,7.2 Z" id="Fill-7" sketch:type="MSShapeGroup"></path>
            <path d="M1.6,9.6 L3.2,9.6 L3.2,11.2 L1.6,11.2 L1.6,9.6 Z" id="Fill-8" sketch:type="MSShapeGroup"></path>
            <path d="M4,9.6 L5.6,9.6 L5.6,11.2 L4,11.2 L4,9.6 Z" id="Fill-9" sketch:type="MSShapeGroup"></path>
            <path d="M6.4,9.6 L8,9.6 L8,11.2 L6.4,11.2 L6.4,9.6 Z" id="Fill-10" sketch:type="MSShapeGroup"></path>
            <path d="M10.4,1.6 L10.4,0.4 C10.4,0.18 10.2208,0 10,0 L8.4,0 C8.1792,0 8,0.18 8,0.4 L8,1.6 L4,1.6 L4,0.4 C4,0.18 3.8208,0 3.6,0 L2,0 C1.7792,0 1.6,0.18 1.6,0.4 L1.6,1.6 L0,1.6 L0,12.8 L12,12.8 L12,1.6 L10.4,1.6 L10.4,1.6 Z M8.8,0.8 L9.6,0.8 L9.6,2.4 L8.8,2.4 L8.8,0.8 Z M2.4,0.8 L3.2,0.8 L3.2,2.4 L2.4,2.4 L2.4,0.8 Z M0.8,4 L11.2,4 L11.2,12 L0.8,12 L0.8,4 Z" id="Fill-11" sketch:type="MSShapeGroup"></path>
        </g>
    </g>
</svg>