<svg xmlns="http://www.w3.org/2000/svg" width="25" height="25"><path fill="#282B36" d="M14.95 3.5c-3.556 0-6.685 2.191-7.972 5.581l-.124.382c-3.043.189-5.463 2.698-5.463 5.764 0 3.105 2.451 5.642 5.51 5.769l.015.004.078.002.147.006.023-.008h.051c5.998 0 6.771-5.872 6.777-5.934l-.006-.066h2.516c.549 0 .75-.375.445-.832l-2.891-4.336c-.307-.458-.806-.458-1.11 0l-2.891 4.336c-.304.457-.104.832.447.832h2.49c-.074.502-.897 5.061-5.959 4.996-2.568-.059-4.643-2.172-4.643-4.771 0-2.636 2.167-4.781 4.83-4.781l.029-.006.102-.021.087-.028.079-.053.072-.061.051-.075.047-.092.014-.026c.062-.215.133-.438.212-.646 1.139-2.998 3.901-4.936 7.037-4.936 4.163 0 7.55 3.478 7.55 7.75 0 3.839-2.788 7.137-6.486 7.673l-.203.027c-.284.032-.571.05-.861.05-.276 0-.5.225-.5.5s.224.5.5.5c.329 0 .655-.02.978-.057l.23-.031c4.186-.605 7.342-4.33 7.342-8.662 0-4.825-3.836-8.75-8.55-8.75z"/></svg>