<?xml version="1.0" encoding="utf-8"?>
<!-- Generator: Adobe Illustrator 16.0.4, SVG Export Plug-In . SVG Version: 6.00 Build 0)  -->
<!DOCTYPE svg PUBLIC "-//W3C//DTD SVG 1.1//EN" "http://www.w3.org/Graphics/SVG/1.1/DTD/svg11.dtd">
<svg version="1.1" id="Layer_1" xmlns="http://www.w3.org/2000/svg" xmlns:xlink="http://www.w3.org/1999/xlink" x="0px" y="0px"
	 width="25px" height="25px" viewBox="0 0 25 25" enable-background="new 0 0 25 25" xml:space="preserve">
<g opacity="0.2">
	<path fill="#0A0D19" d="M12.5,0C5.597,0,0,5.597,0,12.5S5.597,25,12.5,25S25,19.403,25,12.5S19.403,0,12.5,0z M12.5,23.5
		c-6.065,0-11-4.935-11-11s4.935-11,11-11s11,4.935,11,11S18.565,23.5,12.5,23.5z"/>
	<polygon fill="#0A0D19" points="14,7 11,7 11,11 7,11 7,14 11,14 11,18 14,18 14,14 18,14 18,11 14,11 	"/>
</g>
</svg>
