<svg xmlns="http://www.w3.org/2000/svg" width="17" height="17"><path opacity=".65" fill="#0A0D19" d="M16.088 4.952c.002-.203-.119-.387-.307-.466-.186-.078-.402-.035-.547.107l-1.717 1.719-.559-.559-1.711-1.711-.559-.559 1.717-1.719c.145-.143.188-.359.109-.546-.08-.187-.264-.309-.465-.308-1.006.009-2.006.39-2.774 1.16-1.211 1.209-1.471 3-.807 4.473l-6.266 5.426-.707.707c-.777.779-.777 2.051 0 2.828.779.779 2.051.779 2.828 0l.707-.707 5.428-6.264c1.473.665 3.262.404 4.473-.807.768-.768 1.149-1.769 1.157-2.774zm-12.471 9.845c-.391.391-1.023.391-1.414 0s-.391-1.023 0-1.414 1.023-.391 1.414 0 .391 1.023 0 1.414z"/></svg>