<?xml version="1.0" encoding="utf-8"?>
<!-- Generator: Adobe Illustrator 18.0.0, SVG Export Plug-In . SVG Version: 6.00 Build 0)  -->
<!DOCTYPE svg PUBLIC "-//W3C//DTD SVG 1.1//EN" "http://www.w3.org/Graphics/SVG/1.1/DTD/svg11.dtd">
<svg version="1.1" id="Layer_1" xmlns="http://www.w3.org/2000/svg" xmlns:xlink="http://www.w3.org/1999/xlink" x="0px" y="0px"
     viewBox="0 0 17 17" enable-background="new 0 0 17 17" xml:space="preserve">
<g>
    <path fill="#13A3C8" d="M13,4.8h-1.5v-1c0-2-1-2-2-2s0,0-2,0s-2,1-2,2c0,0.4,0,0.5,0,0.4v0.6H4c-0.3,0-0.5,0.2-0.5,0.5v1
        c0,0.3,0.2,0.5,0.5,0.5h9c0.3,0,0.5-0.2,0.5-0.5v-1C13.5,5.1,13.3,4.8,13,4.8z M9.5,4.8h-2v-1h2V4.8z"/>
    <path fill="#13A3C8" d="M10.5,7.9v4.8c0,0.3-0.2,0.5-0.5,0.5c-0.3,0-0.5-0.2-0.5-0.5V7.9l0-0.1h-2l0,0.1v4.8c0,0.3-0.2,0.5-0.5,0.5
        s-0.5-0.2-0.5-0.5V7.9l0-0.1h-2v6.8c0,0.3,0.2,0.5,0.5,0.5h7c0.3,0,0.5-0.2,0.5-0.5V7.8L10.5,7.9L10.5,7.9z"/>
</g>
</svg>
